HIERARCHY
ROOT Hips
{
  OFFSET -143.074 99.0332 5.27807
  CHANNELS 6 Xposition Yposition Zposition Zrotation Xrotation Yrotation
  JOINT RightUpLeg
  {
    OFFSET -8.9458 -8.66707 0.101652
    CHANNELS 3 Zrotation Xrotation Yrotation
    JOINT RightLeg
    {
      OFFSET 0 -44.4227 1.3727
      CHANNELS 3 Zrotation Xrotation Yrotation
      JOINT RightFoot
      {
        OFFSET 0.253549 -42.0924 -1.46059
        CHANNELS 3 Zrotation Xrotation Yrotation
        JOINT RightToes
        {
          OFFSET 0.04 -4.41509 8.4991
          CHANNELS 3 Zrotation Xrotation Yrotation
          End Site
          {
            OFFSET -0.08 -0.137448 9.77979
          }
        }
      }
    }
  }
  JOINT Spine
  {
    OFFSET 0 11.8905 0
    CHANNELS 3 Zrotation Xrotation Yrotation
    JOINT Spine1
    {
      OFFSET 0 25.6574 0.127663
      CHANNELS 3 Zrotation Xrotation Yrotation
      JOINT HEad
      {
        OFFSET 0 8.73416 0.011341
        CHANNELS 3 Zrotation Xrotation Yrotation
        End Site
        {
          OFFSET -0.29 12.7742 2.51395
        }
      }
      JOINT LeftShoulder1
      {
        OFFSET 8.99 -0.362252 -0.22
        CHANNELS 3 Zrotation Xrotation Yrotation
        JOINT LeftArm
        {
          OFFSET 10.2827 -0.00338 0.322123
          CHANNELS 3 Zrotation Xrotation Yrotation
          JOINT LeftForeArm
          {
            OFFSET 32.7669 0.099144 -1.42434
            CHANNELS 3 Zrotation Xrotation Yrotation
            JOINT LeftHand
            {
              OFFSET 27.5643 0.085362 1.02216
              CHANNELS 3 Zrotation Xrotation Yrotation
              End Site
              {
                OFFSET 16.7443 -0.6 1.50291
              }
            }
          }
        }
      }
      JOINT RightShoulder
      {
        OFFSET -8.99 -0.362252 -0.22
        CHANNELS 3 Zrotation Xrotation Yrotation
        JOINT RightArm
        {
          OFFSET -10.2827 -0.00338 0.322123
          CHANNELS 3 Zrotation Xrotation Yrotation
          JOINT RightForeArm
          {
            OFFSET -32.8971 0.099144 -1.42434
            CHANNELS 3 Zrotation Xrotation Yrotation
            JOINT RightHand
            {
              OFFSET -27.4921 0.085362 1.02216
              CHANNELS 3 Zrotation Xrotation Yrotation
              End Site
              {
                OFFSET -16.6312 -0.6 1.50291
              }
            }
          }
        }
      }
    }
  }
  JOINT LeftUpLeg
  {
    OFFSET 8.9458 -8.66707 0.101652
    CHANNELS 3 Zrotation Xrotation Yrotation
    JOINT LeftLeg
    {
      OFFSET 0 -44.4227 1.3727
      CHANNELS 3 Zrotation Xrotation Yrotation
      JOINT LeftFoot
      {
        OFFSET -0.253549 -42.0924 -1.46059
        CHANNELS 3 Zrotation Xrotation Yrotation
        JOINT LeftToes
        {
          OFFSET -0.04 -4.41509 8.4991
          CHANNELS 3 Zrotation Xrotation Yrotation
          End Site
          {
            OFFSET 0.08 -0.047448 9.77979
          }
        }
      }
    }
  }
}
MOTION
Frames:	7
Frame Time:	0.0166667
-138.214 96.2759 26.8119 -1.82687 -9.52909 20.6018 -4.51926 3.16575 1.87495 -0.0508505 23.8012 17.3221 10.3803 1.19812 -0.91828 -21.508 -20.8342 0.596945 3.71341 11.1825 0.202108 5.67989 22.4729 0.168977 -7.37934 -11.7936 41.049 -1.59028e-015 -3.18055e-015 -3.18055e-015 -55.7293 -52.3753 -9.53094 -27.8166 36.0849 -75.2979 5.82834 8.398 -28.7956 29.6581 7.48378 21.469 34.8126 -5.94881 46.8317 16.9202 42.8555 118.631 -2.30229 10.209 -26.8736 22.6453 -9.15052 0.0958667 -2.8888 34.0307 21.1745 -13.9414 14.5413 2.59674 -7.40924 -24.7488 -4.47636 
-137.801 97.3817 25.6558 -1.88586 -8.10369 18.2289 -4.97134 1.01377 1.42149 -1.41547 22.8924 17.8332 11.6546 2.54397 -1.14525 -19.5326 -19.0294 0.993997 3.50743 10.7437 0.396213 5.00104 21.634 0.662723 -8.04815 -12.4051 41.7855 -1.76556e-031 3.18055e-015 3.18055e-015 -53.6182 -53.623 -8.27147 -28.7132 35.6885 -72.6205 5.53449 8.47006 -29.1166 29.6274 7.40795 21.2557 33.2799 -2.97066 44.9592 15.0687 40.4398 120.338 -1.76276 10.1077 -27.3665 22.1783 -8.75672 1.19265 -3.06912 31.1822 20.3826 -15.2787 16.9473 3.16483 -7.16762 -23.806 -4.91521 
-137.542 98.3116 24.4828 -1.73237 -6.85922 16.3041 -5.3431 -1.2763 0.99508 -2.21817 23.2801 16.4664 12.5327 4.77697 -1.45279 -19.623 -19.1096 1.06522 3.33581 10.45 0.374934 4.26539 21.094 0.738748 -8.2114 -13.4814 42.6666 -1.59028e-015 6.36111e-015 6.36111e-015 -51.5153 -55.0381 -7.39299 -29.8942 34.9703 -69.3721 5.20264 8.55057 -29.5484 29.0386 7.50619 21.9772 33.1325 -1.27303 44.3133 13.8769 39.381 120.82 -1.63776 10.0885 -28.0934 22.0841 -8.90137 1.32877 -3.90357 29.1018 19.1482 -16.5493 19.945 3.85811 -7.06094 -23.0527 -5.89066 
-137.399 99.018 23.314 -1.40443 -6.0072 15.0185 -5.67815 -3.38095 0.591646 -2.38118 25.2382 13.5548 12.8254 7.77524 -1.79913 -21.8433 -21.1348 1.01299 3.21635 10.3487 0.162011 3.54159 20.9423 0.435135 -7.72587 -14.7444 43.4446 -7.95139e-016 0 -0 -49.8054 -56.4001 -7.43534 -31.3261 33.8045 -65.6128 4.74618 8.66767 -30.0879 27.9306 7.66756 23.3236 34.2264 -1.10403 44.7442 13.4575 39.7619 120.282 -1.71891 10.1143 -29.1072 22.2 -9.3606 0.634567 -4.82166 27.7688 16.7722 -17.6597 22.8843 4.56998 -6.93245 -22.079 -7.36385 
-137.342 99.4615 22.1612 -0.943912 -5.68223 14.3469 -6.0373 -4.96442 0.258731 -1.91802 28.5419 9.92026 12.9277 11.6148 -2.21896 -26.2585 -25.0521 0.627132 3.04664 10.4491 -0.111622 2.85953 21.1844 -0.0124 -6.74602 -15.9016 43.8849 -7.95139e-016 -3.18055e-015 -1.59028e-015 -49.02 -57.3747 -8.99988 -32.6879 32.0255 -61.5625 4.10802 8.84635 -30.612 26.3751 7.7552 24.8914 36.3738 -2.32718 46.0176 13.783 41.3607 119.015 -1.84564 10.1544 -30.3638 22.3268 -9.912 -0.479646 -5.24858 27.2156 12.8481 -18.7502 25.1527 5.23003 -6.68814 -20.6768 -9.37932 
-137.347 99.5946 21.0317 -0.362035 -5.91291 14.1763 -6.42681 -5.73386 0.0166798 -1.00744 32.5559 6.58036 13.8279 16.3507 -2.91097 -32.7997 -30.4956 -0.495052 2.68521 10.7167 -0.305675 2.21922 21.7328 -0.355936 -5.60252 -16.7253 43.8388 -1.76556e-031 3.18055e-015 3.18055e-015 -49.4761 -54.295 -12.4218 -31.8739 26.4512 -59.7251 3.0585 9.17159 -30.6596 24.5403 7.69187 26.3379 39.2307 -4.45237 47.8553 14.5872 43.6293 117.361 -2.00441 10.2061 -31.708 22.3367 -10.4223 -1.79728 -5.0181 27.5145 7.86741 -19.8292 26.2051 5.72574 -6.3319 -19.0603 -11.6124 
-137.394 99.3787 19.931 0.328355 -6.62138 14.3755 -6.73462 -5.5286 -0.139865 0.00561778 36.5402 4.58838 16.5693 21.4501 -4.19994 -40.5839 -36.344 -2.36732 2.06975 11.0836 -0.335822 1.62175 22.4376 -0.462735 -4.58508 -17.0547 43.2673 7.95139e-016 -6.36111e-015 1.59028e-015 -50.1872 -50.1142 -16.6256 -30.542 20.1336 -58.0105 2.00208 9.50218 -30.4832 22.6859 7.48883 27.4465 42.3867 -6.87793 50.0472 15.5751 46.0146 115.554 -2.39734 10.3165 -32.7739 22.2158 -10.8559 -3.2605 -4.30251 28.6553 3.01484 -20.5599 25.8071 5.87645 -5.96935 -17.6991 -13.3863 
